<svg width="548" height="408" viewBox="0 0 548 408" fill="none" xmlns="http://www.w3.org/2000/svg">
<g clip-path="url(#clip0_61_1452)">
<path d="M373.638 53.428V135.701H356.001V53.5443H295.791V131.39H278.155V53.558L295.805 35.9078H356.116L373.638 53.428Z" fill="white"/>
<path d="M373.775 135.838H355.865V53.6812H295.928V131.527H278.018V53.5014L295.748 35.771H356.173L373.775 53.3713V135.838ZM356.138 135.564H373.501V53.4847L356.06 36.0447H295.862L278.292 53.6147V131.253H295.655V53.4075H356.138L356.138 135.564Z" fill="black"/>
<path d="M278.155 53.4211H373.638V53.6949H278.155V53.4211Z" fill="black"/>
<path d="M225.913 94.252H421.138V358.68H225.913V94.252Z" fill="#0A4ECF"/>
</g>
<g clip-path="url(#clip1_61_1452)">
<path d="M273.109 243.133H64.7333L72.5899 224.46C75.1216 218.442 81.0141 214.529 87.5424 214.529H250.3C256.828 214.529 262.72 218.442 265.252 224.46L273.109 243.133Z" fill="white"/>
<path d="M273.315 243.27H64.527L72.4636 224.406C75.0232 218.323 80.942 214.392 87.5424 214.392H250.3C256.9 214.392 262.819 218.323 265.378 224.406L273.315 243.27ZM64.9394 242.996H272.902L265.126 224.513C262.609 218.531 256.789 214.666 250.3 214.666H87.5424C81.0527 214.666 75.2329 218.531 72.7161 224.513L64.9394 242.996Z" fill="black"/>
<path d="M64.7333 243.133H273.109V358.543H64.7333V243.133Z" fill="white"/>
<path d="M273.246 358.68H64.5961V242.996H273.245L273.246 358.68ZM64.8702 358.406H272.972V243.27H64.8701L64.8702 358.406Z" fill="black"/>
<path d="M273.109 243.021H64.7333L72.5899 263.402C75.1216 269.97 81.0141 274.241 87.5424 274.241H250.3C256.828 274.241 262.72 269.97 265.252 263.402L273.109 243.021Z" fill="white"/>
<path d="M250.299 274.378H87.5424C80.9402 274.378 75.0208 270.089 72.4621 263.451L64.5336 242.885H273.308L265.38 263.451C262.821 270.089 256.902 274.378 250.299 274.378ZM64.9328 243.159L72.7178 263.353C75.2354 269.884 81.0545 274.104 87.5424 274.104H250.3C256.788 274.104 262.607 269.884 265.124 263.353L272.909 243.159H64.9328Z" fill="black"/>
<path d="M250.525 140.85V274.087H87.317V191.336L137.804 140.85H250.525Z" fill="#EAEAEA"/>
<path d="M137.941 191.473H87.3168V191.199H137.667V140.85H137.941V191.473Z" fill="black"/>
<path d="M246.472 196.813C210.034 196.813 180.495 226.351 180.495 262.789C180.495 266.695 180.834 270.522 181.485 274.24H213.787C212.531 270.656 211.848 266.802 211.848 262.789C211.848 243.668 227.349 228.166 246.472 228.166C247.843 228.166 249.195 228.246 250.525 228.402V196.936C249.184 196.854 247.833 196.813 246.472 196.813Z" fill="#B3B2B2"/>
<path d="M246.472 297.411C231.362 297.411 218.515 287.734 213.787 274.24H181.485C186.906 305.219 213.94 328.764 246.472 328.764C255.95 328.764 264.963 326.766 273.108 323.165V284.909C266.757 292.547 257.183 297.411 246.472 297.411Z" fill="#CFE3FF"/>
<path d="M181.485 274.103H213.787V274.377H181.485V274.103ZM272.971 283.847H273.245V326.893H272.971V283.847Z" fill="black"/>
</g>
<g clip-path="url(#clip2_61_1452)">
<path d="M374.078 185.786C390.762 185.786 404.287 172.261 404.287 155.577C404.287 138.894 390.762 125.369 374.078 125.369C357.395 125.369 343.87 138.894 343.87 155.577C343.87 172.261 357.395 185.786 374.078 185.786Z" fill="#CFE3FF"/>
<path d="M386.14 155.457C386.14 162.119 380.741 167.518 374.079 167.518C367.416 167.518 362.018 162.119 362.018 155.457H350.5C350.615 168.381 361.13 178.821 374.079 178.821C387.028 178.821 397.542 168.382 397.657 155.457H386.14Z" fill="#0A4ECF"/>
</g>
<g clip-path="url(#clip3_61_1452)">
<path d="M308.654 347.172L313.978 347.785L313.032 356.001L307.707 355.388L308.654 347.172ZM341.024 355.398L335.712 356.118L334.601 347.922L339.912 347.202L341.024 355.398Z" fill="#FFBD9C"/>
<path d="M315.485 357.597C315.485 357.991 315.445 358.373 315.372 358.744H304.038C303.963 358.366 303.925 357.982 303.925 357.597C303.925 354.407 306.512 351.82 309.705 351.82C312.897 351.82 315.485 354.407 315.485 357.597ZM344.642 357.67C344.642 358.064 344.602 358.446 344.528 358.817H333.195C333.12 358.439 333.082 358.055 333.082 357.67C333.082 354.48 335.669 351.893 338.862 351.893C342.054 351.893 344.642 354.48 344.642 357.67Z" fill="black"/>
<path d="M342.882 349.473L331.441 350.692C329.872 335.997 327.545 321.986 324.505 308.925C321.468 321.985 319.142 335.997 317.574 350.692L306.131 349.473C308.069 331.318 311.137 314.14 315.248 298.419L324.507 300.839L333.765 298.419C337.878 314.142 340.945 331.318 342.882 349.473Z" fill="white"/>
<path d="M331.38 350.767L331.373 350.699C329.82 336.147 327.51 322.196 324.506 309.228C321.505 322.188 319.196 336.139 317.642 350.699L317.634 350.767L306.056 349.534L306.063 349.466C308.001 331.308 311.069 314.127 315.181 298.401L315.199 298.335L324.507 300.768L333.814 298.335L333.831 298.401C337.945 314.129 341.013 331.309 342.95 349.466L342.957 349.534L331.38 350.767ZM306.207 349.412L317.513 350.617C319.079 335.967 321.409 321.936 324.439 308.91L324.506 308.623L324.572 308.91C327.605 321.944 329.936 335.976 331.502 350.617L342.806 349.412C340.873 331.313 337.815 314.186 333.716 298.502L324.507 300.91L315.297 298.502C311.2 314.184 308.142 331.311 306.207 349.412H306.207Z" fill="black"/>
<path d="M364.085 262.833C362.637 266 358.622 269.685 357.641 270.601C357.624 270.616 357.61 270.63 357.597 270.644C357.586 270.653 357.576 270.663 357.567 270.673C357.517 270.718 357.48 270.753 357.456 270.778L357.432 270.801C357.428 270.807 357.424 270.811 357.42 270.815C347.117 280.758 336.295 285.799 325.251 285.799H325.133C319.552 285.781 313.853 284.468 308.192 281.898C302.771 279.435 297.24 275.75 291.75 270.938C291.745 270.933 291.739 270.928 291.732 270.924C291.304 270.581 286.864 266.946 285.009 263.62C283.852 261.548 284.609 260.786 285.317 260.572C285.748 260.443 286.21 260.505 286.603 260.714C286.733 260.783 286.85 260.875 286.96 260.973C288.124 262.015 288.812 262.668 290.241 263.528C290.667 263.841 291.547 263.96 291.723 263.357C291.871 262.846 291.684 261.844 291.637 261.166C291.606 260.732 291.758 260.293 292.178 260.175C292.391 260.113 292.654 260.088 292.922 260.351C293.017 260.445 293.089 260.56 293.145 260.681C293.603 262.089 294.363 263.45 295.297 264.667C295.75 265.258 296.267 265.797 296.832 266.282C301.627 270.408 306.397 273.562 311.025 275.664C315.797 277.83 320.551 278.937 325.155 278.952H325.25C329.816 278.952 334.406 277.878 338.897 275.76C343.036 273.808 347.205 270.917 351.314 267.155C352.362 266.196 353.248 265.073 353.95 263.838C354.537 262.807 355.158 261.623 355.788 260.383C355.836 260.258 355.902 260.139 355.991 260.04C356.243 259.761 356.506 259.771 356.724 259.819C357.15 259.913 357.405 260.35 357.323 260.777C357.205 261.382 357.032 262.43 357.119 262.953C357.12 262.961 357.121 262.97 357.123 262.976C357.216 263.495 357.845 263.713 358.252 263.376C359.627 262.433 360.881 261.415 361.979 260.306C362.083 260.202 362.194 260.103 362.32 260.027C362.701 259.794 363.157 259.705 363.596 259.808C364.317 259.979 365.071 260.673 364.085 262.833Z" fill="#FFBD9C"/>
<path d="M314.284 279.205H334.708V302.099H314.284V279.205Z" fill="#CFE3FF"/>
<path d="M325.04 289.103C324.954 289.103 324.868 289.103 324.783 289.102C318.461 289.057 311.95 287.327 304.289 283.658L309.617 272.543C321.209 278.095 328.439 278.179 339.374 272.888L344.746 283.981C337.531 287.472 331.26 289.103 325.04 289.103Z" fill="#CFE3FF"/>
<path d="M330.46 276.164C327.583 276.806 324.83 276.95 321.971 276.589C323.828 277.965 325.03 280.171 325.03 282.659C325.03 286.832 321.648 290.213 317.475 290.213C316.334 290.213 315.253 289.961 314.283 289.508V296.82C315.311 297.05 316.378 297.172 317.475 297.172C325.493 297.172 331.992 290.674 331.992 282.659C331.992 280.324 331.44 278.118 330.46 276.164Z" fill="white"/>
<path d="M330.028 269.741C330.028 270.273 329.952 270.788 329.812 271.272C329.148 273.577 327.024 275.262 324.507 275.262C321.459 275.262 318.985 272.791 318.985 269.741C318.985 269.363 319.023 268.994 319.096 268.636C319.096 268.635 319.096 268.634 319.098 268.632C319.447 266.914 320.599 265.486 322.143 264.753C322.293 264.681 322.447 264.617 322.604 264.56C323.086 264.382 323.59 264.274 324.102 264.238C324.235 264.228 324.371 264.222 324.506 264.222C324.642 264.222 324.776 264.228 324.909 264.238C325.421 264.274 325.926 264.382 326.408 264.558C328.184 265.209 329.532 266.747 329.916 268.632C329.918 268.634 329.918 268.635 329.918 268.636C329.989 268.993 330.028 269.363 330.028 269.741Z" fill="#FFBD9C"/>
<path d="M329.916 268.633C329.307 268.856 328.663 268.97 328.013 268.969C326.734 268.971 325.493 268.526 324.506 267.712C323.548 266.925 322.86 265.82 322.603 264.56C323.085 264.383 323.59 264.274 324.102 264.238C324.235 264.228 324.371 264.222 324.506 264.222C324.642 264.222 324.776 264.228 324.909 264.238C325.421 264.274 325.926 264.382 326.408 264.558C328.184 265.209 329.532 266.747 329.916 268.633Z" fill="black"/>
<path d="M326.408 264.558C326.38 264.7 326.346 264.841 326.305 264.979C325.993 266.065 325.356 267.013 324.506 267.712C323.519 268.526 322.279 268.971 320.999 268.969C320.331 268.969 319.692 268.85 319.098 268.632C319.447 266.914 320.599 265.486 322.143 264.753C322.293 264.681 322.447 264.617 322.603 264.56C323.085 264.382 323.59 264.274 324.102 264.238C324.235 264.228 324.371 264.222 324.506 264.222C324.642 264.222 324.776 264.228 324.909 264.238C325.421 264.274 325.926 264.382 326.408 264.558L326.408 264.558Z" fill="black"/>
</g>
<g clip-path="url(#clip4_61_1452)">
<path d="M420.905 219.683L426.9 219.284L427.517 228.528L421.521 228.927L420.905 219.683Z" fill="#FFBE9D"/>
<path d="M411.368 232.64H428.063L427.381 226.488C426.653 226.899 426.056 227.074 425.179 227.074C423.441 227.074 421.894 226.34 421.258 224.659L412.268 229.125C412.036 229.24 411.831 229.405 411.669 229.607C410.732 230.788 411.368 232.64 411.368 232.64Z" fill="black"/>
<path d="M442.467 221.51L448.028 219.236L451.542 227.81L445.981 230.083L442.467 221.51Z" fill="#FFBE9D"/>
<path d="M433.868 232.64H453.47L450.851 226.124C450.124 226.535 448.556 227.074 447.679 227.074C445.941 227.074 444.394 226.34 443.758 224.659L434.768 229.125C434.536 229.24 434.331 229.405 434.169 229.607C433.232 230.788 433.868 232.64 433.868 232.64Z" fill="black"/>
<path d="M405.824 157.773C405.824 157.773 396.501 155.714 393.559 159.177C393.559 159.177 392.401 160.65 393.588 161.631C394.002 161.973 394.546 162.111 395.08 162.057C396.913 161.871 402.623 162.232 403.597 162.79L405.824 157.773ZM404.746 139.594C404.746 139.594 400.585 131.009 396.042 130.849C396.042 130.849 394.166 130.854 394.132 132.393C394.12 132.929 394.348 133.441 394.722 133.826C396.004 135.148 399.258 139.848 399.424 140.957L404.746 139.594Z" fill="#FFBE9D"/>
<path d="M438.601 225.138C432.873 214.754 427.016 199.376 421.193 179.432L433.029 175.984C438.599 195.063 444.107 209.601 449.399 219.195L438.601 225.138Z" fill="#B3B2B2"/>
<path d="M417.991 224.378C415.149 205.93 414.978 193.485 415.046 177.918L427.375 177.972C427.307 193.446 427.466 204.906 430.176 222.506L417.991 224.378Z" fill="#B3B2B2"/>
<path d="M429.797 147.231C429.797 147.775 429.72 148.302 429.577 148.799C428.896 151.158 426.72 152.883 424.139 152.883C421.015 152.883 418.481 150.353 418.481 147.231C418.481 144.976 419.805 143.029 421.717 142.122C422.474 141.764 423.301 141.578 424.139 141.58C427.264 141.58 429.797 144.11 429.797 147.231H429.797Z" fill="#FFBE9D"/>
<path d="M429.797 147.231C429.797 147.775 429.72 148.302 429.577 148.799C429.058 148.934 428.523 149.002 427.986 149.002C424.507 149.002 421.689 146.185 421.689 142.711C421.689 142.513 421.698 142.316 421.717 142.122C422.474 141.764 423.301 141.578 424.139 141.58C427.264 141.58 429.797 144.11 429.797 147.231H429.797ZM427.72 200.327C427.4 196.358 427.4 192.667 427.72 189.044L427.857 189.056C427.537 192.672 427.537 196.355 427.857 200.316L427.72 200.327Z" fill="black"/>
<path d="M423.373 168.421C427.139 168.421 430.193 165.371 430.193 161.608C430.193 157.846 427.139 154.796 423.373 154.796C419.606 154.796 416.553 157.846 416.553 161.608C416.553 165.371 419.606 168.421 423.373 168.421Z" fill="#EE5A25"/>
<path d="M422.157 164.938C414.29 163.631 408.309 160.708 403.874 156C400.084 151.978 397.45 146.701 395.586 139.395L405.542 136.86C408.439 148.214 413.399 153.08 423.842 154.814L422.157 164.938Z" fill="#EE5A25"/>
<path d="M433.702 178.267H415.01V162.79L430.061 160.274L433.702 178.267Z" fill="#EE5A25"/>
<path d="M416.453 172.21C413.557 172.21 410.509 171.418 407.348 169.839L407.054 169.692L398.644 164.047L404.375 155.529L412.222 160.796C417.429 163.292 419.544 161.303 420.925 159.011L429.728 164.302C427.385 168.192 424.075 170.769 420.157 171.756C418.954 172.059 417.717 172.21 416.453 172.21Z" fill="#EE5A26"/>
<path d="M416.466 172.256C415.987 172.256 415.5 172.234 415.004 172.19L415.016 172.054C417.14 172.24 419.094 172.026 420.99 171.4C423.275 170.644 425.413 169.252 427.173 167.373L427.273 167.466C425.497 169.362 423.339 170.767 421.033 171.53C419.562 172.016 418.057 172.256 416.466 172.256L416.466 172.256ZM416.248 161.962C415.846 161.962 415.429 161.922 414.997 161.841C412.712 161.582 408.142 158.378 404.398 155.598L404.022 156.152L403.908 156.075L404.365 155.403L404.423 155.446C408.163 158.225 412.748 161.448 415.018 161.706C416.86 162.051 418.427 161.644 419.681 160.497C420.248 159.979 420.718 159.301 421.078 158.483C422.089 156.187 423.919 155.235 426.671 155.572L426.654 155.708C423.97 155.379 422.187 156.305 421.203 158.538C420.835 159.374 420.354 160.067 419.773 160.598C418.781 161.506 417.599 161.962 416.248 161.962L416.248 161.962Z" fill="black"/>
</g>
<g clip-path="url(#clip5_61_1452)">
<path d="M461.866 241.978L458.241 289.088L456.083 317.14L453.551 350.033H380.642L372.326 241.978H461.866Z" fill="#EAEAEA"/>
<path d="M403.315 233.554H386.307L388.963 226.612H400.658L403.315 233.554Z" fill="white"/>
<path d="M403.513 233.691H386.108L388.869 226.475H400.752L400.786 226.563L403.513 233.691ZM386.505 233.417H403.116L400.564 226.749H389.057L386.505 233.417Z" fill="black"/>
<path d="M467.663 246.691H366.53L371.314 232.78H462.88L467.663 246.691Z" fill="white"/>
<path d="M467.855 246.828H366.338L371.216 232.644H462.977L463.009 232.736L467.855 246.828L467.855 246.828ZM366.722 246.554H467.471L462.782 232.917H371.411L366.722 246.554Z" fill="black"/>
<path d="M385.83 350.034H448.363V358.817H385.83V350.034Z" fill="white"/>
<path d="M448.5 358.954H385.693V349.897H448.5V358.954ZM385.967 358.68H448.226V350.171H385.967V358.68Z" fill="black"/>
<path d="M439.876 297.764C426.748 297.764 416.103 287.121 416.103 273.989H393.401C393.627 299.467 414.353 320.045 439.876 320.045C445.576 320.045 451.037 319.018 456.083 317.14L458.241 289.088C453.881 294.386 447.274 297.764 439.876 297.764Z" fill="#0A4ECF"/>
</g>
<g clip-path="url(#clip6_61_1452)">
<path d="M123.637 276.615C123.696 277.115 123.825 277.604 124.019 278.068C124.923 280.218 127.167 281.603 129.6 281.316C132.546 280.97 134.654 278.303 134.307 275.359C134.056 273.233 132.592 271.543 130.688 270.901C129.934 270.647 129.134 270.564 128.344 270.658C125.397 271.004 123.29 273.671 123.637 276.615Z" fill="#FFBD9C"/>
<path d="M123.637 276.615C123.696 277.115 123.825 277.604 124.019 278.068C124.513 278.136 125.023 278.144 125.541 278.083C128.822 277.697 131.166 274.729 130.78 271.453C130.758 271.268 130.727 271.083 130.688 270.901C129.934 270.647 129.134 270.564 128.344 270.658C125.397 271.004 123.29 273.671 123.637 276.615Z" fill="black"/>
<path d="M123.227 273.071C125.163 273.071 126.732 271.504 126.732 269.57C126.732 267.636 125.163 266.068 123.227 266.068C121.291 266.068 119.721 267.636 119.721 269.57C119.721 271.504 121.291 273.071 123.227 273.071Z" fill="black"/>
<path d="M107.585 355.264L102.655 353.07L106.046 345.468L110.976 347.662L107.585 355.264Z" fill="#FFBD9C"/>
<path d="M117.516 358.404H100.26L102.854 352.625C104.292 354.342 107.784 354.819 109.247 351.54L116.708 355.246C116.916 355.35 117.1 355.498 117.245 355.679C118.087 356.74 117.516 358.404 117.516 358.404L117.516 358.404Z" fill="#B3B2B2"/>
<path d="M130.974 355.246L125.597 354.785L126.309 346.492L131.687 346.953L130.974 355.246Z" fill="#FFBD9C"/>
<path d="M139.821 358.385L125.203 358.406L125.75 352.992C126.83 353.958 130.415 353.907 131.312 351.312L138.983 355.323C139.192 355.427 139.376 355.574 139.521 355.756C140.363 356.817 139.821 358.385 139.821 358.385H139.821Z" fill="#B3B2B2"/>
<path d="M113.272 350.575L102.332 345.662C108.232 332.552 113.908 316.932 119.203 299.235L130.695 302.666C125.249 320.866 119.387 336.985 113.272 350.575V350.575Z" fill="black"/>
<path d="M123.196 349.133C124.693 334.837 125.191 318.227 124.678 299.763L136.667 299.43C137.196 318.419 136.677 335.561 135.126 350.379L123.196 349.133V349.133Z" fill="black"/>
<path d="M108.503 315.534C103.814 306.792 104.485 297.524 110.295 290.743C110.894 290.045 112.553 288.245 115.022 286.631C118.516 284.345 122.364 283.258 126.148 283.485C132.232 283.852 137.454 287.043 140.852 292.471C141.96 294.24 142.806 295.784 143.552 297.147C144.636 299.124 145.492 300.686 146.715 302.151C148.065 303.768 149.231 305.164 156.624 306.041L155.581 314.812C146.429 313.727 143.018 311.513 139.925 307.808C138.15 305.682 137.007 303.596 135.797 301.388C135.074 300.07 134.327 298.706 133.355 297.154C131.462 294.129 128.858 292.497 125.616 292.302C120.976 292.018 117.404 296.029 117.012 296.487C113.614 300.452 113.353 305.874 116.296 311.362L108.503 315.533V315.534Z" fill="#ED5A25"/>
<path d="M136.844 308.738L116.255 308.749L122.25 288.674H136.852L136.844 308.738Z" fill="#ED5A25"/>
<path d="M101.383 307.654L169.132 288.876L172.765 301.955L105.016 320.733L101.383 307.654Z" fill="#B3B2B2"/>
<path d="M186.457 291.117L179.611 296.536L172.765 301.954L170.948 295.415L169.132 288.876L177.795 289.996L186.457 291.117Z" fill="#EAEAEA"/>
<path d="M186.456 291.116L182.172 294.508L181.035 290.415L186.456 291.116Z" fill="#0A4ECF"/>
<path d="M97.4504 308.744L101.383 307.654L105.016 320.733L101.083 321.823L97.4504 308.744Z" fill="#EAEAEA"/>
<path d="M92.6142 310.085L97.4505 308.744L101.083 321.823L96.2468 323.163C94.6542 323.605 93.0027 322.671 92.5609 321.081L90.5295 313.767C90.0877 312.176 91.0219 310.526 92.6143 310.085L92.6142 310.085Z" fill="#0A4ECF"/>
<path d="M107.993 312.692C107.993 312.692 113.932 320.074 118.365 319.219C118.365 319.219 120.178 318.796 119.869 317.3C119.761 316.778 119.426 316.334 118.978 316.044C117.444 315.05 114.357 310.687 113.949 309.651L107.993 312.692L107.993 312.692ZM155.874 312.347C156.989 312.265 162.954 310.678 163.333 305.448C163.371 304.927 163.245 304.401 162.945 303.974C162.639 303.541 162.132 303.155 161.321 303.341C159.723 303.708 158.136 306.057 156.575 306.442L155.874 312.347Z" fill="#FFBD9C"/>
<path d="M117.706 285.141V295.758C117.336 296.117 117.098 296.387 117.012 296.488C115.377 298.395 114.458 300.608 114.279 303.06C114.088 305.717 114.766 308.509 116.297 311.363L108.502 315.533C103.815 306.792 104.484 297.524 110.295 290.744C110.894 290.045 112.552 288.246 115.022 286.631C115.897 286.058 116.793 285.561 117.706 285.141Z" fill="#ED5A25"/>
</g>
<g clip-path="url(#clip7_61_1452)">
<path d="M456.669 312.473C456.115 314.334 456.257 316.404 457.245 318.24L471.703 345.059C471.738 345.15 471.783 345.234 471.839 345.313C471.852 345.343 471.866 345.37 471.884 345.397C471.91 345.458 471.939 345.511 471.975 345.566L472.008 345.576C473.494 347.991 476.641 348.872 479.161 347.508C481.775 346.092 482.76 342.784 481.349 340.161L470.344 319.759C470.244 319.565 470.088 319.406 469.896 319.302C469.704 319.199 469.485 319.156 469.268 319.18C468.827 319.225 468.459 319.544 468.34 319.973C468.271 320.249 468.308 320.539 468.451 320.785L479.423 341.177C480.277 342.766 479.689 344.74 478.106 345.598C476.576 346.427 474.727 345.895 473.833 344.423C473.803 344.375 473.77 344.329 473.733 344.287C473.72 344.257 473.705 344.229 473.687 344.202L473.651 344.085L473.619 344.076L459.181 317.191C457.761 314.553 458.724 311.305 461.359 309.878C463.989 308.453 467.229 309.424 468.648 312.063L486.549 345.332C488.537 349.026 487.172 353.61 483.49 355.604C479.808 357.599 475.24 356.229 473.252 352.535L458.941 325.936C458.782 325.552 458.423 325.29 458.008 325.263C457.805 325.25 457.604 325.295 457.425 325.392C457.247 325.489 457.099 325.633 456.998 325.81C456.793 326.173 456.814 326.618 457.047 326.962L471.359 353.561C473.9 358.284 479.836 360.068 484.545 357.514C489.253 354.96 491.016 349.039 488.475 344.316L470.584 311.014C468.608 307.341 463.975 305.952 460.314 307.935C458.484 308.927 457.223 310.612 456.669 312.473Z" fill="#B3B2B2"/>
</g>
<defs>
<clipPath id="clip0_61_1452">
<rect width="195.225" height="322.909" fill="white" transform="translate(225.913 35.771)"/>
</clipPath>
<clipPath id="clip1_61_1452">
<rect width="208.788" height="217.83" fill="white" transform="translate(64.527 140.85)"/>
</clipPath>
<clipPath id="clip2_61_1452">
<rect width="60.417" height="60.417" fill="white" transform="translate(343.87 125.369)"/>
</clipPath>
<clipPath id="clip3_61_1452">
<rect width="80.145" height="99.051" fill="white" transform="translate(284.412 259.766)"/>
</clipPath>
<clipPath id="clip4_61_1452">
<rect width="60.417" height="101.791" fill="white" transform="translate(393.053 130.849)"/>
</clipPath>
<clipPath id="clip5_61_1452">
<rect width="101.517" height="132.479" fill="white" transform="translate(366.338 226.475)"/>
</clipPath>
<clipPath id="clip6_61_1452">
<rect width="96.037" height="92.338" fill="white" transform="translate(90.42 266.068)"/>
</clipPath>
<clipPath id="clip7_61_1452">
<rect width="33.291" height="51.649" fill="white" transform="translate(456.347 307.031)"/>
</clipPath>
</defs>
</svg>
